<?xml version="1.0" standalone="no"?>
<!DOCTYPE svg PUBLIC "-//W3C//DTD SVG 20010904//EN"
 "http://www.w3.org/TR/2001/REC-SVG-20010904/DTD/svg10.dtd">
<svg version="1.0" xmlns="http://www.w3.org/2000/svg"
 width="490.000000pt" height="490.000000pt" viewBox="0 0 490.000000 490.000000"
 preserveAspectRatio="xMidYMid meet">
<metadata>
Created by potrace 1.11, written by Peter Selinger 2001-2013
</metadata>
<g transform="translate(0.000000,490.000000) scale(0.100000,-0.100000)"
fill="#000000" stroke="none">
<path d="M4187 4354 c-1 -1 -45 -4 -97 -8 -52 -3 -106 -8 -120 -10 -14 -3 -43
-7 -65 -11 -101 -15 -281 -61 -414 -107 -80 -27 -159 -53 -176 -57 -134 -35
-512 -241 -740 -404 -206 -147 -329 -252 -525 -447 -188 -187 -356 -387 -497
-593 -30 -44 -34 -46 -65 -39 -68 15 -329 7 -403 -12 -172 -46 -324 -133 -445
-256 -76 -77 -182 -221 -234 -319 -24 -46 -26 -53 -10 -46 40 16 171 56 204
61 19 3 37 7 40 9 3 2 33 6 65 10 33 4 71 8 85 11 34 6 238 5 275 -1 89 -15
145 -29 145 -36 0 -5 -9 -31 -20 -59 -11 -28 -20 -53 -20 -55 0 -3 26 -17 57
-30 l56 -25 -29 -32 c-16 -18 -39 -41 -52 -51 l-23 -20 32 -33 c18 -19 31 -36
28 -38 -2 -2 -35 -20 -74 -41 -251 -132 -443 -379 -501 -646 -3 -13 -7 -34
-10 -47 -2 -13 -18 -80 -34 -150 -16 -70 -31 -138 -34 -152 -2 -14 -11 -54
-20 -90 -8 -35 -14 -65 -13 -66 1 -2 59 10 127 27 536 126 570 137 705 224
139 91 268 234 337 373 l31 63 33 -32 33 -32 46 47 c26 25 49 46 51 46 3 0 13
-20 24 -45 11 -25 22 -45 24 -45 3 0 28 9 56 20 28 11 55 20 60 20 5 0 13 -24
19 -53 31 -157 31 -318 1 -482 -5 -27 -12 -65 -15 -83 -5 -31 -43 -155 -61
-196 -6 -17 2 -15 52 13 333 188 521 422 579 723 15 80 18 249 7 332 l-9 59
45 31 c311 214 635 510 858 784 10 13 29 36 42 50 54 64 211 289 278 398 118
193 238 435 269 544 7 25 29 90 48 145 56 158 84 273 122 490 8 47 19 212 19
295 l1 75 -73 0 c-40 1 -74 0 -75 -1z"/>
</g>
</svg>
