<svg version="1" xmlns="http://www.w3.org/2000/svg" width="682.667" height="682.667" viewBox="0 0 512.000000 512.000000"><path d="M457.7 38.6c-.1.1-4.5.4-9.7.8-11.6.8-16.9 1.3-24 2.6-3 .5-7.1 1.2-9 1.5-1.9.3-4.3.8-5.2 1.1-.9.3-2.5.6-3.5.8-1 .2-4.7 1.2-8.3 2.1-35 9-71.3 25.1-106.4 47.3-9.9 6.3-38 26.7-42.2 30.6-.7.6-3.8 3.3-7 6.1-16.9 14.4-34.2 31.6-49.9 49.5-6.3 7.2-23.2 29.1-28.5 36.9l-5.5 8.1-6.5-.7c-11.8-1.4-33.9-.9-41.8 1-29 6.9-50.5 22.9-68.6 51.1-5.9 9.3-10.6 17.2-10.6 18 0 .3 2.4-.3 5.3-1.3 6.4-2.4 18.7-5.7 24.7-6.6 2.5-.4 5.2-.9 6.1-1 10.7-2 32.3-2.3 43.1-.5 6.9 1.1 13.8 2.8 13.8 3.4 0 .2-1.4 3.6-3 7.6-1.7 4-2.9 7.4-2.8 7.4.2.1 1.4.7 2.8 1.3 10.9 4.8 14 6.3 14 6.8 0 .2-1.9 1.6-4.1 3.1l-4.2 2.6 5.4 5.4c2.9 2.9 5.1 5.5 4.8 5.8-.2.2-3 2.1-6.1 4.3-13 8.7-24.6 22.9-30.2 36.7-2.2 5.6-5.5 18.2-7.2 27.6-.3 1.4-.7 3.3-1 4.2-.3.9-.7 2.5-.9 3.5-.2 1-.8 3.9-1.4 6.6-1.8 7.8-2.3 11.7-1.4 11.7.4 0 8.5-1.9 17.8-4.1 9.4-2.2 18.4-4.3 20-4.6 7.1-1.1 21.6-6.8 28.5-11.1 8.7-5.4 18.9-15.2 24.4-23.5l3.8-5.9 5.5 5.4c5.8 5.7 5.5 5.7 8.9-.5.8-1.5 1.6-2.7 1.9-2.7.5 0 5.9 11.4 6.9 14.6.6 2.1.7 2.1 8.1-.9 4.1-1.7 7.7-2.8 8-2.5.7.7 1.3 3.3 3 13.8 2 12.4 1.3 35.3-1.5 49.5-2.1 10.4-4.4 18.8-6.5 23.8-.8 2-1.5 4.1-1.5 4.6 0 1.9 21.3-11.3 32-19.8 19.2-15.3 33-37.6 37.6-61.1 2.3-11.7 2.2-37.1-.2-43.3-.7-1.8-.5-1.9 12.1-10.8 9.8-6.9 28-21.4 38-30.1 8.9-7.8 34.8-34.1 43.6-44.3C423.7 218.7 455 158.3 467 101c1-4.7 2.1-10.3 2.4-12.5.3-2.2.8-5.4 1.1-7 1-6.6 1.5-12.7 2.1-27.3l.6-15.2-2.3-.1c-1.3 0-4.8-.1-7.7-.2-3-.1-5.4-.1-5.5-.1zM342.9 134c30.4 5.7 45.3 41.3 28.3 67.6-4.6 7.1-9.5 11.4-17.7 15.4-22.2 11-48 2-59.1-20.6-6.6-13.3-5.7-30 2.2-42.5 9.7-15.5 28.1-23.4 46.3-19.9z"/></svg>