<svg version="1" xmlns="http://www.w3.org/2000/svg" width="682.667" height="682.667" viewBox="0 0 512.000000 512.000000"><path d="M400.7 86.6c-.1.1-3.8.4-8.2.8-32.2 2.5-71.6 14.9-103.1 32.4-14.5 8.1-17.2 9.7-27.4 16.5-25.6 17.1-51.9 39.9-73 63.3-10 11.1-20.4 24.3-27.2 34.5l-5.3 8-6-.7c-17-2-33.2-.3-46.3 4.7-20.6 7.9-36.4 22.9-51.7 49.3-2.6 4.4-2.7 4.9-1 4.2 11.3-4.4 34.7-9 36.6-7.2.9.8 1 .7.4-.2-.6-1.1 1.7-1.3 12-1.1 7 .1 14.8.6 17.4 1.2 2.5.5 5.7 1.1 6.9 1.3 1.8.4 2.2.9 1.7 2.2-.7 1.7-1.3 4-1.4 5.5-.1.5-.4.6-.8.4-.5-.3-.8 1.1-.8 3.1 0 2.3.5 3.7 1.5 3.9.8.3 2.2.7 3 1 .8.4 1.9.7 2.3.7.4.1 1.1.5 1.5 1.1.4.5 1.6 1.2 2.7 1.3 3 .6 2.9.8-.9 3.1-2.2 1.4-3.3 2.7-2.9 3.7.3.7.9 1.4 1.3 1.4.5 0 1.2.9 1.5 2 .4 1.1 1 1.8 1.5 1.5.8-.5 3.6 3.4 2.8 3.9-.2.2-2.3 1.7-4.8 3.3-9.6 6.5-17.8 15.9-23.1 26.5-2.5 5-7 20.7-8.6 30.3-.3 1.6-1.3 6.4-2.4 10.5-1 4.1-1.7 7.5-1.6 7.7.3.2 2.3-.2 19.1-4.2 6-1.4 11.1-2.3 11.4-2 .3.2 1 .1 1.6-.4.7-.6 2.3-1.2 3.6-1.5 1.4-.3 4-.9 5.9-1.5 1.9-.6 3.8-.8 4.4-.4.6.4.7.1.2-.7-.6-1-.3-1.2 1.3-.8 1.3.4 2 .1 1.9-.5-.1-.6.3-1.2.8-1.3 2.7-.5 5.5-1.7 5.5-2.4 0-1 4-2.5 5.5-2.1.5.1.7-.1.3-.5-.4-.4-.3-1.3.3-2.1 1.4-1.6 3.3-1.8 2.3-.1-.4.7-.3.8.5.4.6-.4.9-1.1.6-1.5-.2-.5.7-2.1 2.2-3.5 2-2.1 2.9-2.4 3.6-1.4.6 1 .8.9.4-.3-.6-1.8 3.7-8.9 5.3-8.9.6 0 1-.6 1-1.4 0-.7.7-1.9 1.5-2.6 1.2-1 1.5-1 1.5.4 0 .9.7 1.6 1.5 1.6 1.4 0 2 1.2 1.6 3.3-.1.5.3.6.9.2.5-.3 1-.1 1 .5s.4.8 1 .5c.5-.3 1-.2 1 .4 0 .6.7.8 1.5.5.8-.3 1.4-.9 1.3-1.2-.2-2 .4-2.3 1.9-1.1 1.6 1.3 1.7 1.2.4-.4-1-1.2-1.1-2.1-.4-2.8 1.2-1.2 4.7 6.6 3.7 8.3-.4.6-.2.8.3.5.6-.4 1.3.2 1.6 1.3.6 2.2 3.6 2.6 5.6.7 1.1-1 1.2-.9.6.3-.7 1.3-.6 1.3 1.1-.1 1-.8 3.1-2 4.7-2.7 2.3-1 2.7-.9 2.8.6 0 .9.3 2.6.5 3.7.3 1.1.6 3.7.7 5.7.1 2.1.6 3.8 1.1 3.8.5 0 .2.8-.5 1.7-1.1 1.4-1.1 1.5-.1.9 1.2-.7 1.3 1.9.9 14.7-.3 8.6-.8 16-1.1 16.5-.3.5-.8 2.7-1 4.8-.5 3.5-4.5 18.3-6.1 22.7-1.4 3.3 20.6-10.4 30.5-19 2.9-2.7 5.8-4.8 6.4-4.8.6-.1 1-.7.8-1.4-.1-.7 1.1-2.8 2.7-4.6 1.6-1.9 4.2-5.5 5.6-8 1.5-2.5 3.1-4.2 3.6-3.9.5.3.9.2.8-.3-.4-2.2.2-3.4 1.4-2.7.8.5.8.3-.2-.9-1.1-1.4-1.1-1.8.3-2.3.9-.3 1.4-1 1.1-1.5-.3-.4-.1-1.6.4-2.6 1.5-2.8 4.5-13.5 4.8-17.2.1-1.8.8-4.1 1.5-4.9 1-1.2 1-1.4.1-.8-.8.4-1.3.1-1.3-.8s.6-1.6 1.3-1.6c.9 0 .9-.2-.1-.9-1.7-1.1-1.7-2.1 0-3.2 1-.7 1-.9 0-.9s-1-.5-.2-2c.6-1.1.7-2 .2-2-.4 0-.8-1-.8-2.3 0-1.2-.4-5.4-.7-9.2l-.7-7 3.1-1.8c1.7-.9 3.6-1.4 4.1-1 .6.3.8.1.5-.4-.9-1.4 2.9-4.7 4.2-3.8.6.3 1.1-.1 1.1-.9 0-.9.6-1.6 1.4-1.6.8 0 1.6-.3 1.8-.8.2-.4 3-2.8 6.3-5.5 3.3-2.6 7.2-5.8 8.7-7.2 1.7-1.5 3.5-2.2 4.5-1.9 1.3.4 1.4.3.5-.3-1.6-1.2 8.2-9.8 10-8.7.7.4.8.3.4-.5-1.1-1.6 1.8-4.3 3.2-2.9.8.8.9.5.5-1.1-.5-2 .4-2.6 3-2.2.5.1.6-.3.2-.9-.7-1.1 4.3-5.7 5.7-5.2.5.1.7-.1.6-.5-.5-1.7 2.4-5.4 3.7-4.9.9.3 1.2 0 .9-.9-.3-.8.3-1.6 1.6-2 1.2-.4 1.9-.9 1.7-1.2-.8-.8 3.5-5.3 4.5-4.7.5.3.7.1.6-.4-.3-.9 5.4-8 11.4-14.4 1.5-1.5 2.4-2.8 2-2.8-.4 0 0-.6.9-1.3.9-.7 2.1-2.2 2.8-3.5.7-1.2 1.6-2 2.2-1.7.5.4.9-.1.9-1 0-2.1 6.9-11.1 8.2-10.7.5.1.7-.2.4-.7-.9-1.4 7.3-13.3 8.6-12.5.7.5.8.2.3-.5-.4-.8.2-2.5 1.4-4.2 1.2-1.6 2.6-4 3.1-5.5.7-1.8 1.5-2.4 2.7-2 1.2.5 1.3.3.5-.6-1.2-1.5.9-5.3 2.3-4 .4.4.4-.4 0-1.7-.6-2-.4-2.3.9-1.8 1 .4 1.5.3 1.1-.3-.3-.5 1.7-5.7 4.5-11.4 2.7-5.7 5-11 5-11.6 0-.7.6-1 1.3-.7.8.3 1.4-.1 1.4-.9 0-.7-.5-1-1.1-.6-.6.3-.3-.6.7-2.1.9-1.4 1.7-3.3 1.7-4.2 0-.8.4-1.5 1-1.5.5 0 .9-.3.9-.8-.3-2 .2-4.2 1.4-5.4.6-.7 1.4-2.2 1.5-3.3.2-1.1.8-2.1 1.2-2.3.5-.2.7-.9.4-1.5-.2-.7.5-3.7 1.6-6.7s2-6.1 2-6.9c0-.7.8-2 1.8-2.8.9-.8 1.1-1.2.5-.8-.7.3-1.3.1-1.3-.4 0-.6.5-1.1 1.1-1.1.5 0 .8-.3.5-.8-.2-.4.6-5.7 1.9-11.7 2.4-11.5 3.1-16 4.1-26 .9-9 1.2-23.8.5-25.5-.5-1.2-2.3-1.6-8.4-1.6-4.3 0-7.9.1-8 .2zM426 132c-.8.5-1 1-.5 1 .6 0 1.7-.5 2.5-1s1.1-1 .5-1c-.5 0-1.7.5-2.5 1zM421.5 136.9c-.3.5-.2 1.2.3 1.5.5.3.9-.1.9-.9 0-1.7-.3-1.9-1.2-.6zM423.5 142c.3.5.8 1 1.1 1 .2 0 .4-.5.4-1 0-.6-.5-1-1.1-1-.5 0-.7.4-.4 1zM415.3 144.5c0 .8.4 1.2.9.9.4-.3.8-.9.8-1.5 0-.5-.4-.9-.8-.9-.5 0-.9.7-.9 1.5zM423.5 145.9c-.3.5-.2 1.2.3 1.5.5.3.9-.1.9-.9 0-1.7-.3-1.9-1.2-.6zM421.3 150.5c0 .8.4 1.2.9.9.5-.3.6-1 .3-1.5-.9-1.3-1.2-1.1-1.2.6zM439.6 151.8c-.3.5.1.9.9.9s1.2-.4.9-.9c-.3-.4-.7-.8-.9-.8-.2 0-.6.4-.9.8zM413 154.1c0 .5.5.7 1 .4.6-.3 1-.8 1-1.1 0-.2-.4-.4-1-.4-.5 0-1 .5-1 1.1zM413 158c0 .5.5 1 1.1 1 .5 0 .7-.5.4-1-.3-.6-.8-1-1.1-1-.2 0-.4.4-.4 1zM421.6 161.8c-.3.4.4.9 1.5.9 2.3.2 2.5-.3.4-1-.8-.4-1.6-.3-1.9.1zM411.3 163.5c0 .8.4 1.2.9.9.5-.3.6-1 .3-1.5-.9-1.3-1.2-1.1-1.2.6zM417.3 164.9c0 1.1.5 1.8.9 1.5.4-.3.5-1.1.1-1.9-.7-2.1-1.2-1.9-1 .4zM414.6 167.8c-.3.5.1.9.9.9s1.2-.4.9-.9c-.3-.4-.7-.8-.9-.8-.2 0-.6.4-.9.8zM420.5 172c-.3.6.1.7.9.4 1.8-.7 2.1-1.4.7-1.4-.6 0-1.3.4-1.6 1zM409.5 182c-.3.5-.1 1 .4 1 .6 0 1.1-.5 1.1-1 0-.6-.2-1-.4-1-.3 0-.8.4-1.1 1zM413 188c0 .5.5 1 1.1 1 .5 0 .7-.5.4-1-.3-.6-.8-1-1.1-1-.2 0-.4.4-.4 1zM399 191.9c0 .6.4 1.3 1 1.6.6.3.7-.1.4-.9-.7-1.8-1.4-2.1-1.4-.7zM408.6 197.8c-.3.5.1.9.9.9s1.2-.4.9-.9c-.3-.4-.7-.8-.9-.8-.2 0-.6.4-.9.8zM403 201.5c0 .7 3 1.3 3.4.7.3-.4-.4-.9-1.5-.9-1-.1-1.9 0-1.9.2zM391.5 207.1c-.4.6-.5 1.2-.2 1.5.2.3.7-.2 1-1.1.7-1.7.1-2-.8-.4zM398.6 207.8c-.3.5.1.9.9.9s1.2-.4.9-.9c-.3-.4-.7-.8-.9-.8-.2 0-.6.4-.9.8zM394.6 211.8c-.3.5.1.9.9.9s1.2-.4.9-.9c-.3-.4-.7-.8-.9-.8-.2 0-.6.4-.9.8zM401.4 213.8c.4.3 1.4.7 2.2.8.9.1 1.3 0 1-.4-.4-.3-1.4-.7-2.2-.8-.9-.1-1.3 0-1 .4zM387 215.9c0 .6.4 1.2.8 1.5.5.3.9-.1.9-.9s-.4-1.5-.9-1.5c-.4 0-.8.4-.8.9zM395 217.5c0 .7 3 1.3 3.4.7.3-.4-.4-.9-1.5-.9-1-.1-1.9 0-1.9.2zM391.6 220.2c.3.5 1 .6 1.5.3 1.3-.9 1.1-1.2-.6-1.2-.8 0-1.2.4-.9.9zM401.6 222.2c.3.4 1.1.5 1.9.1 2.1-.7 1.9-1.2-.4-1-1.1 0-1.8.5-1.5.9z"/><path d="M382.7 224.1c.7.7 1.5 1 1.8.7.3-.3-.2-.9-1.2-1.2-1.4-.6-1.5-.5-.6.5zM387.5 224c.3.5.8 1 1.1 1 .2 0 .4-.5.4-1 0-.6-.5-1-1.1-1-.5 0-.7.4-.4 1zM391 223.9c0 .6.4 1.3 1 1.6.6.3.7-.1.4-.9-.7-1.8-1.4-2.1-1.4-.7zM399.5 225.9c-.3.5-.2 1.2.3 1.5.5.3.9-.1.9-.9 0-1.7-.3-1.9-1.2-.6zM393.5 230.1c-.3.4.2.6 1 .5 2.1-.3 2.8-1.3 1-1.3-.9 0-1.8.4-2 .8zM391.6 234.7c-.6 1.4-.5 1.5.5.6.7-.7 1-1.5.7-1.8-.3-.3-.9.2-1.2 1.2zM385.5 238c.3.5.8 1 1.1 1 .2 0 .4-.5.4-1 0-.6-.5-1-1.1-1-.5 0-.7.4-.4 1zM370 242c-.8.5-1 1-.5 1 .6 0 1.7-.5 2.5-1s1.1-1 .5-1c-.5 0-1.7.5-2.5 1zM389.3 243.1c-.2 2.3.3 2.5 1 .4.4-.8.3-1.6-.1-1.9-.4-.3-.9.4-.9 1.5zM379.3 243.5c0 .8.4 1.2.9.9.5-.3.6-1 .3-1.5-.9-1.3-1.2-1.1-1.2.6zM369.5 246c-.3.5-.1 1 .4 1 .6 0 1.1-.5 1.1-1 0-.6-.2-1-.4-1-.3 0-.8.4-1.1 1zM373 246c0 .5.5 1 1.1 1 .5 0 .7-.5.4-1-.3-.6-.8-1-1.1-1-.2 0-.4.4-.4 1zM365 250c0 .5.5 1 1.1 1 .5 0 .7-.5.4-1-.3-.6-.8-1-1.1-1-.2 0-.4.4-.4 1zM369.5 250c-.3.5-.1 1 .4 1 .6 0 1.1-.5 1.1-1 0-.6-.2-1-.4-1-.3 0-.8.4-1.1 1zM373 250.1c0 .5.5.7 1 .4.6-.3 1-.8 1-1.1 0-.2-.4-.4-1-.4-.5 0-1 .5-1 1.1zM365 254.1c0 .5.5.7 1 .4.6-.3 1-.8 1-1.1 0-.2-.4-.4-1-.4-.5 0-1 .5-1 1.1zM369.5 254c-.3.5-.1 1 .4 1 .6 0 1.1-.5 1.1-1 0-.6-.2-1-.4-1-.3 0-.8.4-1.1 1zM373.5 254c-.3.5-.1 1 .4 1 .6 0 1.1-.5 1.1-1 0-.6-.2-1-.4-1-.3 0-.8.4-1.1 1zM381.6 253.8c-.3.5.1.9.9.9s1.2-.4.9-.9c-.3-.4-.7-.8-.9-.8-.2 0-.6.4-.9.8zM375.4 257.8c.4.3 1.4.7 2.2.8.9.1 1.3 0 1-.4-.4-.3-1.4-.7-2.2-.8-.9-.1-1.3 0-1 .4zM367.6 260.7c-.6 1.4-.5 1.5.5.6.7-.7 1-1.5.7-1.8-.3-.3-.9.2-1.2 1.2zM372.9 264.3c.6.8.7 1.8.3 2.2-.4.5-.1.5.6.1 1-.6 1-1.1.1-2.2-.6-.8-1.4-1.4-1.6-1.4-.3 0 0 .6.6 1.3zM353 270c0 .5.5 1 1.1 1 .5 0 .7-.5.4-1-.3-.6-.8-1-1.1-1-.2 0-.4.4-.4 1zM361 270c0 .5.5 1 1.1 1 .5 0 .7-.5.4-1-.3-.6-.8-1-1.1-1-.2 0-.4.4-.4 1zM364.6 270.2c.3.5 1 .6 1.5.3 1.3-.9 1.1-1.2-.6-1.2-.8 0-1.2.4-.9.9zM365.3 273.5c0 .8.4 1.2.9.9.5-.3.6-1 .3-1.5-.9-1.3-1.2-1.1-1.2.6zM353 274.1c0 .5.5.7 1 .4.6-.3 1-.8 1-1.1 0-.2-.4-.4-1-.4-.5 0-1 .5-1 1.1zM357 274c0 .5.5 1 1.1 1 .5 0 .7-.5.4-1-.3-.6-.8-1-1.1-1-.2 0-.4.4-.4 1zM345 278.1c0 .5.5.7 1 .4.6-.3 1-.8 1-1.1 0-.2-.4-.4-1-.4-.5 0-1 .5-1 1.1zM365 280.1c0 .5.5.7 1 .4.6-.3 1-.8 1-1.1 0-.2-.4-.4-1-.4-.5 0-1 .5-1 1.1zM391.5 279.9c-.3.5-.2 1.2.3 1.5.5.3.9-.1.9-.9 0-1.7-.3-1.9-1.2-.6zM361.5 284c-.3.5-.1 1 .4 1 .6 0 1.1-.5 1.1-1 0-.6-.2-1-.4-1-.3 0-.8.4-1.1 1zM337.5 286c-.3.5-.1 1 .4 1 .6 0 1.1-.5 1.1-1 0-.6-.2-1-.4-1-.3 0-.8.4-1.1 1zM341 286c0 .5.5 1 1.1 1 .5 0 .7-.5.4-1-.3-.6-.8-1-1.1-1-.2 0-.4.4-.4 1zM349.4 288.4c.1.8.5 1.8.8 2.2.4.3.5-.1.4-1-.1-.8-.5-1.8-.8-2.2-.4-.3-.5.1-.4 1zM345.5 290c-.3.5-.1 1 .4 1 .6 0 1.1-.5 1.1-1 0-.6-.2-1-.4-1-.3 0-.8.4-1.1 1zM339 292c0 .5.5 1 1.1 1 .5 0 .7-.5.4-1-.3-.6-.8-1-1.1-1-.2 0-.4.4-.4 1zM341.4 300.4c.1.8.5 1.8.8 2.2.4.3.5-.1.4-1-.1-.8-.5-1.8-.8-2.2-.4-.3-.5.1-.4 1zM345.5 300c-.3.5-.1 1 .4 1 .6 0 1.1-.5 1.1-1 0-.6-.2-1-.4-1-.3 0-.8.4-1.1 1zM335.6 304.2c.3.5 1 .6 1.5.3 1.3-.9 1.1-1.2-.6-1.2-.8 0-1.2.4-.9.9zM321.5 306c-.3.5-.1 1 .4 1 .6 0 1.1-.5 1.1-1 0-.6-.2-1-.4-1-.3 0-.8.4-1.1 1zM325 306.1c0 .5.5.7 1 .4.6-.3 1-.8 1-1.1 0-.2-.4-.4-1-.4-.5 0-1 .5-1 1.1zM329 306.1c0 .5.5.7 1 .4.6-.3 1-.8 1-1.1 0-.2-.4-.4-1-.4-.5 0-1 .5-1 1.1zM339.9 308.7c-1.3 1.7-1.3 1.7.6.3 1.1-.8 2.2-1.6 2.4-1.7.2-.2 0-.3-.6-.3s-1.7.8-2.4 1.7zM347 307.9c0 .6.4 1.3 1 1.6.6.3.7-.1.4-.9-.7-1.8-1.4-2.1-1.4-.7zM329.5 308.9c-.3.5-.2 1.2.3 1.5.5.3.9-.1.9-.9 0-1.7-.3-1.9-1.2-.6zM321.5 310c-.3.5-.1 1 .4 1 .6 0 1.1-.5 1.1-1 0-.6-.2-1-.4-1-.3 0-.8.4-1.1 1zM325.5 310c-.3.5-.1 1 .4 1 .6 0 1.1-.5 1.1-1 0-.6-.2-1-.4-1-.3 0-.8.4-1.1 1zM323.6 316.2c.3.5 1 .6 1.5.3 1.3-.9 1.1-1.2-.6-1.2-.8 0-1.2.4-.9.9zM327.5 318c.3.5.8 1 1.1 1 .2 0 .4-.5.4-1 0-.6-.5-1-1.1-1-.5 0-.7.4-.4 1zM301.5 320c.3.5.8 1 1.1 1 .2 0 .4-.5.4-1 0-.6-.5-1-1.1-1-.5 0-.7.4-.4 1zM320.9 320.3c.6.8.7 1.8.3 2.2-.4.5-.1.5.6.1 1-.6 1-1.1.1-2.2-.6-.8-1.4-1.4-1.6-1.4-.3 0 0 .6.6 1.3zM331 321.5c0 .5.5 1.7 1 2.5s1 1 1 .5c0-.6-.5-1.7-1-2.5s-1-1.1-1-.5zM323.5 324.9c-.3.5-.2 1.2.3 1.5.5.3.9-.1.9-.9 0-1.7-.3-1.9-1.2-.6zM293.5 326c-.3.5-.1 1 .4 1 .6 0 1.1-.5 1.1-1 0-.6-.2-1-.4-1-.3 0-.8.4-1.1 1zM297 326.1c0 .5.5.7 1 .4.6-.3 1-.8 1-1.1 0-.2-.4-.4-1-.4-.5 0-1 .5-1 1.1zM301 326.1c0 .5.5.7 1 .4.6-.3 1-.8 1-1.1 0-.2-.4-.4-1-.4-.5 0-1 .5-1 1.1zM305.5 326c-.3.5-.1 1 .4 1 .6 0 1.1-.5 1.1-1 0-.6-.2-1-.4-1-.3 0-.8.4-1.1 1zM309 326.1c0 .5.5.7 1 .4.6-.3 1-.8 1-1.1 0-.2-.4-.4-1-.4-.5 0-1 .5-1 1.1zM317.4 326.4c.1.8.5 1.8.8 2.2.4.3.5-.1.4-1-.1-.8-.5-1.8-.8-2.2-.4-.3-.5.1-.4 1zM293.5 330c.3.5.8 1 1.1 1 .2 0 .4-.5.4-1 0-.6-.5-1-1.1-1-.5 0-.7.4-.4 1zM305 330c0 .5.5 1 1.1 1 .5 0 .7-.5.4-1-.3-.6-.8-1-1.1-1-.2 0-.4.4-.4 1zM312 330c-1.2.7-1 .9.7.7 1.2 0 1.9-.5 1.7-.9-.6-1-.6-1-2.4.2zM287.3 332.7c0 .9.4 1 1.4.2.7-.6 1.3-1.2 1.3-1.4 0-.1-.6-.2-1.3-.2-.8 0-1.4.6-1.4 1.4zM289.5 338c.3.5.8 1 1.1 1 .2 0 .4-.5.4-1 0-.6-.5-1-1.1-1-.5 0-.7.4-.4 1zM293.5 338c.3.5.8 1 1.1 1 .2 0 .4-.5.4-1 0-.6-.5-1-1.1-1-.5 0-.7.4-.4 1zM305.9 337.2c-.5 1.8-.6 3.8-.1 3.4.7-.8 1.2-3.6.6-3.6-.2 0-.4.1-.5.2zM289.5 342c.3.5.8 1 1.1 1 .2 0 .4-.5.4-1 0-.6-.5-1-1.1-1-.5 0-.7.4-.4 1zM307.5 343.1c-.4.6-.5 1.2-.2 1.5.2.3.7-.2 1-1.1.7-1.7.1-2-.8-.4zM285 346.1c0 .5.5.7 1 .4.6-.3 1-.8 1-1.1 0-.2-.4-.4-1-.4-.5 0-1 .5-1 1.1zM300.5 348c-.3.6.1.7.9.4 1.8-.7 2.1-1.4.7-1.4-.6 0-1.3.4-1.6 1zM283.4 349.8c.4.3 1.4.7 2.2.8.9.1 1.3 0 1-.4-.4-.3-1.4-.7-2.2-.8-.9-.1-1.3 0-1 .4zM289.4 349.8c.4.3 1.4.7 2.2.8.9.1 1.3 0 1-.4-.4-.3-1.4-.7-2.2-.8-.9-.1-1.3 0-1 .4zM281.5 355.9c-.3.5-.2 1.2.3 1.5.5.3.9-.1.9-.9 0-1.7-.3-1.9-1.2-.6zM277.3 360.9c0 1.1.5 1.8.9 1.5.4-.3.5-1.1.1-1.9-.7-2.1-1.2-1.9-1 .4zM272.9 368.3c.6.8.7 1.8.3 2.2-.4.5-.1.5.6.1 1-.6 1-1.1.1-2.2-.6-.8-1.4-1.4-1.6-1.4-.3 0 0 .6.6 1.3zM295.3 368.5c0 .8.4 1.2.9.9.5-.3.6-1 .3-1.5-.9-1.3-1.2-1.1-1.2.6zM180 376c-.9.6-1 1-.3 1 .6 0 1.5-.5 1.8-1 .8-1.2.4-1.2-1.5 0zM171.4 378.4c.1.8.5 1.8.8 2.2.4.3.5-.1.4-1-.1-.8-.5-1.8-.8-2.2-.4-.3-.5.1-.4 1zM189 378.1c0 .5.5.7 1 .4.6-.3 1-.8 1-1.1 0-.2-.4-.4-1-.4-.5 0-1 .5-1 1.1zM174.6 380.2c.3.5 1 .6 1.5.3 1.3-.9 1.1-1.2-.6-1.2-.8 0-1.2.4-.9.9zM179.5 380c-.3.5-.1 1 .4 1 .6 0 1.1-.5 1.1-1 0-.6-.2-1-.4-1-.3 0-.8.4-1.1 1zM269.4 380.4c.1.8.5 1.8.8 2.2.4.3.5-.1.4-1-.1-.8-.5-1.8-.8-2.2-.4-.3-.5.1-.4 1zM273.4 380.4c.1.8.5 1.8.8 2.2.4.3.5-.1.4-1-.1-.8-.5-1.8-.8-2.2-.4-.3-.5.1-.4 1zM188 382c-1.2.7-1 .9.7.7 1.2 0 1.9-.5 1.7-.9-.6-1-.6-1-2.4.2zM265 382.1c0 .5.5.7 1 .4.6-.3 1-.8 1-1.1 0-.2-.4-.4-1-.4-.5 0-1 .5-1 1.1zM165.5 386c.3.5.8 1 1.1 1 .2 0 .4-.5.4-1 0-.6-.5-1-1.1-1-.5 0-.7.4-.4 1zM183.4 385.8c.4.3 1.4.7 2.2.8.9.1 1.3 0 1-.4-.4-.3-1.4-.7-2.2-.8-.9-.1-1.3 0-1 .4zM189 388c0 .5.5 1 1.1 1 .5 0 .7-.5.4-1-.3-.6-.8-1-1.1-1-.2 0-.4.4-.4 1zM161.5 390c.3.5.8 1 1.1 1 .2 0 .4-.5.4-1 0-.6-.5-1-1.1-1-.5 0-.7.4-.4 1zM165.5 390c.3.5.8 1 1.1 1 .2 0 .4-.5.4-1 0-.6-.5-1-1.1-1-.5 0-.7.4-.4 1zM269.6 389.9c.9.9 3.4.9 3.4.1 0-.5-.9-.8-2-.7-1 .1-1.7.3-1.4.6zM153 394c0 .5.5 1 1.1 1 .5 0 .7-.5.4-1-.3-.6-.8-1-1.1-1-.2 0-.4.4-.4 1zM165 394c0 .5.5 1 1.1 1 .5 0 .7-.5.4-1-.3-.6-.8-1-1.1-1-.2 0-.4.4-.4 1zM149.4 396.4c.1.8.5 1.8.8 2.2.4.3.5-.1.4-1-.1-.8-.5-1.8-.8-2.2-.4-.3-.5.1-.4 1zM274.6 395.8c-.3.5.1.9.9.9s1.2-.4.9-.9c-.3-.4-.7-.8-.9-.8-.2 0-.6.4-.9.8zM159 400.1c0 .5.5.7 1 .4.6-.3 1-.8 1-1.1 0-.2-.4-.4-1-.4-.5 0-1 .5-1 1.1zM143 402.1c0 .5.5.7 1 .4.6-.3 1-.8 1-1.1 0-.2-.4-.4-1-.4-.5 0-1 .5-1 1.1zM153.9 401.2c-.5 1.8-.6 3.8-.1 3.4.7-.8 1.2-3.6.6-3.6-.2 0-.4.1-.5.2zM163.5 402.1c-.3.4.2.6 1 .5 2.1-.3 2.8-1.3 1-1.3-.9 0-1.8.4-2 .8zM265 402.1c0 .5.5.7 1 .4.6-.3 1-.8 1-1.1 0-.2-.4-.4-1-.4-.5 0-1 .5-1 1.1zM265 406c0 .5.5 1 1.1 1 .5 0 .7-.5.4-1-.3-.6-.8-1-1.1-1-.2 0-.4.4-.4 1zM161 407.4c0 .2.7.7 1.6 1 .8.3 1.2.2.9-.4-.6-1-2.5-1.4-2.5-.6zM261 410c0 .5.5 1 1.1 1 .5 0 .7-.5.4-1-.3-.6-.8-1-1.1-1-.2 0-.4.4-.4 1zM155 411.4c0 .2.7.7 1.6 1 .8.3 1.2.2.9-.4-.6-1-2.5-1.4-2.5-.6zM253.4 418.2c-.4.7-.4 1 .1.6.4-.4 1.5-.2 2.4.5 1.4 1.1 1.4 1 .2-.6-1.6-2-1.8-2.1-2.7-.5zM259.5 418.1c-.3.4.2.6 1 .5 2.1-.3 2.8-1.3 1-1.3-.9 0-1.8.4-2 .8zM255 424.3c0 .2.6 1 1.4 1.6 1.1.9 1.6.9 2.2-.1.4-.7.4-1-.1-.6-.4.4-1.4.3-2.2-.3-.7-.6-1.3-.9-1.3-.6zM260.6 427.8c-.3.5.1.9.9.9s1.2-.4.9-.9c-.3-.4-.7-.8-.9-.8-.2 0-.6.4-.9.8zM253.6 430.2c.3.4 1.1.5 1.9.1 2.1-.7 1.9-1.2-.4-1-1.1 0-1.8.5-1.5.9z"/></svg>