<svg class="background--left" xmlns="http://www.w3.org/2000/svg" xmlns:xlink="http://www.w3.org/1999/xlink" viewBox="0 0 500 400">
  <defs>
    <circle id="left-a" cx="45.725" cy="45.725" r="45.725"/>
    <circle id="left-c" cx="113.087" cy="113.087" r="113.087"/>
    <circle id="left-e" cx="67.771" cy="67.771" r="67.771"/>
  </defs>
  <g>
    <g class="planet --moon">
      <g transform="translate(154 224)">
        <g fill="#000" opacity=".1">
          <circle cx="56" cy="56" r="56"/>
          <circle cx="56" cy="56" r="50.52"/>
        </g>
        <g transform="translate(10.275 10.275)">
          <clip-path id="left-b" fill="#fff">
            <use xlink:href="#left-a"/>
          </clip-path>
          <g clip-path="url(#left-b)">
            <use fill="#D8D8D8" xlink:href="#left-a"/>
            <g fill="#000" opacity=".25" transform="translate(13.358 12.673)">
              <circle cx="46.41" cy="4.624" r="4.624"/>
              <circle cx="17.639" cy="61.48" r="4.624"/>
              <circle cx="62.508" cy="46.067" r="4.624"/>
              <circle cx="41.957" cy="59.768" r="1.884"/>
              <circle cx="26.887" cy="43.327" r="1.884"/>
              <circle cx="45.554" cy="30.483" r="2.74"/>
              <circle cx="1.884" cy="39.56" r="1.884"/>
              <circle cx="65.248" cy="23.804" r="1.884"/>
              <circle cx="23.119" cy="9.419" r="3.596"/>
              <circle cx="13.015" cy="24.661" r="2.74"/>
            </g>
            <path fill="#FFF" d="M45.7247706,91.4495413 C20.4716771,91.4495413 0,70.9778642 0,45.7247706 C0,20.4716771 20.4716771,0 45.7247706,0 C70.9778642,0 91.4495413,20.4716771 91.4495413,45.7247706 C91.4495413,70.9778642 70.9778642,91.4495413 45.7247706,91.4495413 Z M45.7247706,88.3669725 C69.2754084,88.3669725 88.3669725,69.2754084 88.3669725,45.7247706 C88.3669725,22.1741329 69.2754084,3.08256881 45.7247706,3.08256881 C22.1741329,3.08256881 3.08256881,22.1741329 3.08256881,45.7247706 C3.08256881,69.2754084 22.1741329,88.3669725 45.7247706,88.3669725 Z" opacity=".75"/>
          </g>
        </g>
      </g>
    </g>
    <g class="planet --earth">
      <g transform="translate(210 -10)">
        <g fill="#000" opacity=".1">
          <circle cx="138.5" cy="138.5" r="138.5"/>
          <circle cx="138.5" cy="138.5" r="124.946"/>
        </g>
        <g transform="translate(25.413 25.413)">
          <clipPath id="left-d">
            <use xlink:href="#left-c" />
          </clipPath>
          <g clip-path="url(#left-d)">
            <use fill="#7AD0E8" xlink:href="#left-c"/>
            <path fill="#8ED1BF" d="M164.246663,-32.1896024 C151.362257,-33.4306246 139.931391,-18.9220036 129.954062,11.3362605 C114.98807,56.7236567 115.685543,102.314461 164.246663,102.314461 C170.860131,102.314461 205.232238,131.62494 178.364063,145.089917 C153.576423,157.512234 167.118337,224.877974 178.364063,220.425212 C187.732517,216.715759 218.509943,174.561598 270.696339,93.9627317 L164.246663,-32.1896024 Z"/>
            <path fill="#8ED1BF" d="M-9.85805375,121.84569 C11.3449265,126.236256 37.8878648,137.985642 69.7707614,157.093849 C101.653658,176.202057 105.999126,202.191747 82.8071649,235.062919 L16.8186513,210.926606 L-9.85805375,121.84569 Z"/>
            <path fill="#FFF" d="M177.088356,28.5188583 C173.441236,28.5188583 170.48466,31.4897069 170.48466,35.1544343 C170.48466,38.8191617 173.441236,41.7900102 177.088356,41.7900102 L191.616487,41.7900102 C195.263608,41.7900102 198.220183,44.7608587 198.220183,48.4255861 C198.220183,52.0903135 195.263608,55.0611621 191.616487,55.0611621 L106.560883,55.0611621 C102.913762,55.0611621 99.9571865,52.0903135 99.9571865,48.4255861 C99.9571865,44.7608587 102.913762,41.7900102 106.560883,41.7900102 L140.635954,41.7900102 C144.283075,41.7900102 147.23965,38.8191617 147.23965,35.1544343 C147.23965,31.4897069 144.283075,28.5188583 140.635954,28.5188583 L126.867603,28.5188583 C124.259716,28.5188583 122.145605,25.5480098 122.145605,21.8832824 C122.145605,18.218555 124.259716,15.2477064 126.867603,15.2477064 L187.686933,15.2477064 C190.294821,15.2477064 192.408931,18.218555 192.408931,21.8832824 C192.408931,25.5480098 190.294821,28.5188583 187.686933,28.5188583 L177.088356,28.5188583 Z" opacity=".75"/>
            <path fill="#FFF" d="M210.368486,181.876237 L210.368486,189.350603 L212.153335,189.350603 C216.917767,189.350603 220.780103,193.232412 220.780103,198.020867 C220.780103,202.809322 216.917767,206.691131 212.153335,206.691131 L163.664948,206.691131 C158.900516,206.691131 155.03818,202.809322 155.03818,198.020867 C155.03818,193.232412 158.900516,189.350603 163.664948,189.350603 L169.019494,189.350603 C171.073129,189.350603 172.737929,187.677409 172.737929,185.61342 C172.737929,183.549431 171.073129,181.876237 169.019494,181.876237 L164.557373,181.876237 C156.014252,181.876237 149.088685,174.915751 149.088685,166.329556 C149.088685,157.743361 156.014252,150.782875 164.557373,150.782875 L222.564951,150.782875 C231.108072,150.782875 238.033639,157.743361 238.033639,166.329556 C238.033639,174.915751 231.108072,181.876237 222.564951,181.876237 L210.368486,181.876237 Z" opacity=".75"/>
            <path fill="#FFF" d="M27.665153,201.359417 L15.4686877,201.359417 C6.92556737,201.359417 0,194.398931 0,185.812736 C0,177.226541 6.92556737,170.266055 15.4686877,170.266055 L73.4762665,170.266055 C82.0193868,170.266055 88.9449541,177.226541 88.9449541,185.812736 C88.9449541,194.398931 82.0193868,201.359417 73.4762665,201.359417 L69.014145,201.359417 C66.9605103,201.359417 65.2957105,203.032611 65.2957105,205.0966 C65.2957105,207.160589 66.9605103,208.833783 69.014145,208.833783 L74.3686907,208.833783 C79.1331232,208.833783 82.9954589,212.715593 82.9954589,217.504047 C82.9954589,222.292502 79.1331232,226.174312 74.3686907,226.174312 L25.8803044,228.382515 C21.1158719,228.382515 17.2535363,222.292502 17.2535363,217.504047 C17.2535363,212.715593 21.1158719,208.833783 25.8803044,208.833783 L27.665153,208.833783 L27.665153,201.359417 Z" opacity=".75"/>
            <rect width="64.379" height="15.248" x="32.19" y="98.263" fill="#FFF" opacity=".75" rx="7.624"/>
            <rect width="32.19" height="15.248" x="103.346" y="122.829" fill="#FFF" opacity=".75" rx="7.624"/>
            <path fill="#FFF" d="M113.087156,226.174312 C50.6308443,226.174312 0,175.543468 0,113.087156 C0,50.6308443 50.6308443,0 113.087156,0 C175.543468,0 226.174312,50.6308443 226.174312,113.087156 C226.174312,175.543468 175.543468,226.174312 113.087156,226.174312 Z M113.087156,218.550459 C171.33293,218.550459 218.550459,171.33293 218.550459,113.087156 C218.550459,54.8413822 171.33293,7.62385321 113.087156,7.62385321 C54.8413822,7.62385321 7.62385321,54.8413822 7.62385321,113.087156 C7.62385321,171.33293 54.8413822,218.550459 113.087156,218.550459 Z" opacity=".75"/>
          </g>
        </g>
      </g>
    </g>
    <g class="planet --mercury">
      <g transform="translate(21 79)">
        <g fill="#000" opacity=".1">
          <circle cx="83" cy="83" r="83"/>
          <circle cx="83" cy="83" r="74.878"/>
        </g>
        <g transform="translate(15.23 15.23)">
          <clipPath id="left-f">
            <use xlink:href="#left-e"/>
          </clipPath>
          <g clip-path="url(#left-f)">
            <use fill="#A68775" xlink:href="#left-e"/>
            <g transform="translate(-8.122 -7.615)" fill="#000" opacity=".15">
              <path d="M0,71.6062655 C23.7144284,72.9591935 47.9779282,72.025008 72.7904993,68.8037092 C97.6030705,65.5824103 119.610496,56.0158324 138.812776,40.1039755 C161.948239,56.5493796 161.948239,68.66551 138.812776,76.4523667 C115.677313,84.2392234 69.406388,87.6968065 0,86.8251159 L0,71.6062655 Z"/>
              <path d="M56.2149407,0 C44.047207,22.7828097 50.6571198,34.1742145 76.0446794,34.1742145 C101.432239,34.1742145 108.625535,22.7828097 97.6245683,0 L124.322598,12.4909791 C116.837425,31.0482748 100.744785,40.3269227 76.0446794,40.3269227 C51.3445732,40.3269227 35.1339615,31.0482748 27.412844,12.4909791 L56.2149407,0 Z"/>
              <path d="M14.7217125,99.4984709 C35.1280179,115.066259 55.6030434,122.850153 76.146789,122.850153 C96.6905346,122.850153 117.16556,115.066259 137.571865,99.4984709 L137.571865,146.201835 L14.7217125,146.201835 L14.7217125,99.4984709 Z"/>
              <ellipse cx="107.875" cy="98.229" rx="9.391" ry="3.3"/>
              <path d="M38.0733945,52.0336391 C38.0733945,46.8468915 39.5507179,42.6422018 41.3730887,42.6422018 C43.1954595,42.6422018 44.6727829,46.8468915 44.6727829,52.0336391 C44.6727829,57.2203867 43.1954595,61.4250765 41.3730887,61.4250765 C39.5507179,61.4250765 38.0733945,57.2203867 38.0733945,52.0336391 Z"/>
            </g>
            <path fill="#FFF" d="M67.7706422,135.541284 C30.34195,135.541284 0,105.199334 0,67.7706422 C0,30.34195 30.34195,0 67.7706422,0 C105.199334,0 135.541284,30.34195 135.541284,67.7706422 C135.541284,105.199334 105.199334,135.541284 67.7706422,135.541284 Z M67.7706422,130.972477 C102.676052,130.972477 130.972477,102.676052 130.972477,67.7706422 C130.972477,32.8652326 102.676052,4.56880734 67.7706422,4.56880734 C32.8652326,4.56880734 4.56880734,32.8652326 4.56880734,67.7706422 C4.56880734,102.676052 32.8652326,130.972477 67.7706422,130.972477 Z" opacity=".75"/>
          </g>
        </g>
      </g>
    </g>
  </g>
</svg>
