<svg class="background--right" xmlns="http://www.w3.org/2000/svg" xmlns:xlink="http://www.w3.org/1999/xlink" viewBox="0 0 500 400">
  <defs>
    <ellipse id="right-a" cx="82.468" cy="82.876" rx="82.468" ry="82.876"/>
    <ellipse id="right-c" cx="114.553" cy="114.949" rx="114.553" ry="114.949"/>
  </defs>
  <g>
    <g class="planet --mars">
      <g transform="translate(0 3)">
        <g fill="#000" opacity=".1">
          <ellipse cx="101" cy="101.5" rx="101" ry="101.5"/>
          <ellipse cx="101" cy="101.5" rx="91.116" ry="91.567"/>
        </g>
        <g transform="translate(18.532 18.624)">
          <clipPath id="right-b">
            <use xlink:href="#right-a"/>
          </clipPath>
          <g clip-path="url(#right-b)">
            <use fill="#FE8B5D" xlink:href="#right-a"/>
            <g fill="#FFF" opacity=".3">
              <g transform="translate(-4.324 26.073)">
                <path d="M131.927909,13.0366972 L156.141991,13.0366972 C158.652195,13.0366972 160.687117,15.0716194 160.687117,17.581823 L160.687117,17.581823 C160.687117,20.1468533 158.712927,22.2797639 156.155547,22.4777217 L136.986827,23.9615054 C133.255287,24.2503508 129.745883,22.1592399 128.223842,18.7399987 L128.223842,18.7399987 C127.313219,16.6942991 128.23338,14.2977261 130.27908,13.387103 C130.798072,13.1560789 131.35982,13.0366972 131.927909,13.0366972 Z"/>
                <path d="M18.5281572,1.71610485 L75.0125509,3.06049074 C76.3912295,3.09330469 77.4917764,4.22035745 77.4917764,5.59942646 L77.4917764,5.59942646 C77.4917764,7.00708988 76.4247859,8.18556978 75.0240458,8.32500923 L18.4979437,13.9520122 C15.2545642,14.2748808 12.3635489,11.907339 12.0406802,8.66395948 C12.0213414,8.46969106 12.0116541,8.2745827 12.0116541,8.07935409 L12.0116541,8.07935409 C12.0116541,4.56403331 14.8613847,1.71430276 18.3767054,1.71430276 C18.4271947,1.71430276 18.4776822,1.7149035 18.5281572,1.71610485 Z" transform="rotate(3 44.752 7.849)"/>
                <path d="M120.71936,75.6036839 L164.120437,72.50838 C167.700097,72.2530836 170.808944,74.9480133 171.064241,78.527674 C171.075212,78.6815148 171.080703,78.8356974 171.080703,78.989929 L171.080703,78.989929 C171.080703,82.5958338 168.15754,85.5189972 164.551635,85.5189972 C164.407022,85.5189972 164.262448,85.5141927 164.118154,85.5045914 L120.720433,82.6169384 C118.878248,82.4943607 117.446665,80.9643547 117.446665,79.1180961 L117.446665,79.1180961 C117.446665,77.269468 118.875416,75.7351915 120.71936,75.6036839 Z" transform="rotate(9 144.264 79.004)"/>
                <path d="M132.221344,92.9093722 L161.124575,90.8480343 C163.508473,90.678018 165.57883,92.4727241 165.748846,94.8566225 C165.756153,94.9590738 165.75981,95.0617527 165.75981,95.1644642 L165.75981,95.1644642 C165.75981,97.5658402 163.81311,99.51254 161.411734,99.51254 C161.315428,99.51254 161.219148,99.5093403 161.123055,99.5029463 L132.222058,97.5798949 C130.995243,97.4982635 130.041871,96.479346 130.041871,95.249818 L130.041871,95.249818 C130.041871,94.018712 130.993357,92.9969505 132.221344,92.9093722 Z" transform="rotate(22 147.9 95.175)"/>
                <path d="M0,43.4811483 C29.6799831,38.4977936 58.9195345,36.0061162 87.7186544,36.0061162 C116.517774,36.0061162 145.757326,38.4977936 175.437309,43.4811483 L175.437309,49.5667557 C146.707176,47.3317003 117.467625,46.2141726 87.7186544,46.2141726 C57.9696841,46.2141726 28.7301326,47.3317003 0,49.5667557 L0,43.4811483 Z"/>
                <path d="M49.4691226,128.559261 C51.8248476,115.396888 57.5752789,107.314325 66.7204164,104.311573 C71.2545708,102.82281 80.999078,104.509184 85.5911441,103.440999 C95.7084437,101.08756 109.754394,96.1516915 115.267135,98.2555798 C123.501656,101.398212 118.489807,121.727116 107.782332,124.48741 C102.604297,125.822262 86.3295942,124.260842 80.1424713,127.340967 C73.5354616,130.630124 76.9821578,138.505658 70.4655739,137.815571 C62.0528887,136.924692 55.0540716,133.839256 49.4691226,128.559261 Z" transform="rotate(-16 84.42 117.802)"/>
              </g>
            </g>
            <g fill="#E17D55">
              <g transform="translate(-2.47 67.046)">
                <ellipse cx="97.602" cy="4.346" rx="10.502" ry="4.346"/>
                <ellipse cx="67.114" cy="20.205" rx="3.791" ry="14.615" transform="rotate(-89 67.114 20.205)"/>
                <path d="M7.40889118,43.9301721 L63.8932849,45.274558 C65.2719634,45.307372 66.3725104,46.4344247 66.3725104,47.8134937 L66.3725104,47.8134937 C66.3725104,49.2211572 65.3055199,50.3996371 63.9047797,50.5390765 L7.37867764,56.1660794 C4.13529814,56.4889481 1.24428282,54.1214063 0.921414177,50.8780268 C0.902075342,50.6837583 0.892388058,50.48865 0.892388058,50.2934214 L0.892388058,50.2934214 C0.892388058,46.7781006 3.74211861,43.92837 7.25743939,43.92837 C7.30792868,43.92837 7.35841619,43.9289708 7.40889118,43.9301721 Z" transform="rotate(-7 33.632 50.063)"/>
                <ellipse cx="95.128" cy="68.32" rx="12.196" ry="4.457" transform="rotate(-22 95.128 68.32)"/>
              </g>
            </g>
            <path fill="#FFF" d="M82.4678899,165.752294 C36.922132,165.752294 0,128.647379 0,82.8761468 C0,37.1049148 36.922132,0 82.4678899,0 C128.013648,0 164.93578,37.1049148 164.93578,82.8761468 C164.93578,128.647379 128.013648,165.752294 82.4678899,165.752294 Z M82.4678899,160.165138 C124.943147,160.165138 159.376147,125.561678 159.376147,82.8761468 C159.376147,40.1906158 124.943147,5.58715596 82.4678899,5.58715596 C39.9926325,5.58715596 5.55963303,40.1906158 5.55963303,82.8761468 C5.55963303,125.561678 39.9926325,160.165138 82.4678899,160.165138 Z" opacity=".75"/>
          </g>
        </g>
      </g>
    </g>
    <g class="planet --saturn">
      <g transform="rotate(-12 557.804 -542.105)">
        <g fill="#000" opacity=".1" transform="translate(30.033)">
          <ellipse cx="140.296" cy="140.78" rx="140.296" ry="140.78"/>
          <ellipse cx="140.296" cy="140.78" rx="126.567" ry="127.004"/>
        </g>
        <g transform="translate(55.775 23.248)">
          <clipPath id="right-d">
            <use xlink:href="#right-c"/>
          </clipPath>
          <g clip-path="url(#right-d)">
            <use fill="#F1DA89" xlink:href="#right-c"/>
            <rect width="257.424" height="29.275" x="-17.476" y="133.066" fill="#000" mask="url(#right-d)" opacity=".15"/>
            <rect width="257.424" height="7.749" x="-18.368" y="171.719" fill="#000" mask="url(#right-d)" opacity=".25"/>
            <rect width="257.424" height="21.526" x="-13.729" y="191.151" fill="#000" mask="url(#right-d)" opacity=".15"/>
            <rect width="257.424" height="21.526" x="-13.729" y="68.022" fill="#000" mask="url(#right-d)" opacity=".15"/>
            <rect width="257.424" height="14.638" x="-13.729" y="25.831" fill="#000" mask="url(#right-d)" opacity=".25"/>
            <rect width="257.424" height="17.221" x="-15.658" y="103.212" fill="#FFF" mask="url(#right-d)" opacity=".25"/>
            <path fill="#FFF" d="M114.553493,229.898263 C51.287346,229.898263 0,178.433784 0,114.949132 C0,51.4644792 51.287346,0 114.553493,0 C177.819641,0 229.106987,51.4644792 229.106987,114.949132 C229.106987,178.433784 177.819641,229.898263 114.553493,229.898263 Z M114.553493,222.148883 C173.554507,222.148883 221.384279,174.15392 221.384279,114.949132 C221.384279,55.7443434 173.554507,7.74937965 114.553493,7.74937965 C55.5524795,7.74937965 7.72270742,55.7443434 7.72270742,114.949132 C7.72270742,174.15392 55.5524795,222.148883 114.553493,222.148883 Z" mask="url(#right-d)" opacity=".75"/>
          </g>
        </g>
        <path fill="#FFEFB5" d="M55.9131071,132.505152 C47.5219205,139.95625 43.2195938,147.784933 44.1527615,155.411223 C47.2426185,180.663002 106.562825,194.133467 176.648152,185.498351 C246.733479,176.863234 301.044038,149.392477 297.954181,124.140699 C296.982439,116.199162 290.449146,109.422875 279.768523,104.132979 C276.859744,94.7126671 272.77626,85.8106624 267.689874,77.5993621 C310.156166,83.7706287 338.884222,98.3106686 341.337707,118.36172 C345.49602,152.345422 272.604739,189.290824 178.530475,200.881584 C84.4562107,212.472345 4.82297363,194.31928 0.664661443,160.335578 C-1.76449148,140.483387 22.0997029,119.620509 61.1203115,103.391768 C58.1944867,112.643877 56.4040218,122.403257 55.9131071,132.505152 Z"/>
      </g>
    </g>
  </g>
</svg>
