<svg xmlns="http://www.w3.org/2000/svg" viewBox="0 0 117 42">
  <path fill="#FFFFFE" fill-rule="evenodd" d="M0,46.51312 C0,38.631045 6.389605,32.241955 14.27168,32.241955 C17.652655,32.241955 20.75656,33.41976 23.20178,35.385 C26.43392,28.879005 33.142825,24.405715 40.899755,24.405715 C41.681525,24.405715 42.45145,24.456185 43.209015,24.54425 C45.398795,19.789255 50.2022,16.487075 55.78068,16.487075 C57.793815,16.487075 59.704465,16.92019 61.429715,17.693205 C65.20312,10.16854 72.98271,5 81.974095,5 C94.66215,5 104.94773,15.28558 104.94773,27.973635 C104.94773,29.458895 104.80147,30.909135 104.532125,32.3156 C111.307465,33.58971 116.43429,39.53384 116.43429,46.67895 L0.00412,46.67895 C0.003605,46.623845 0,46.56874 0,46.51312 Z" transform="translate(0 -5)"/>
</svg>
