<svg xmlns="http://www.w3.org/2000/svg" viewBox="0 0 117 42">
  <path fill="#FFFFFE" fill-rule="evenodd" d="M116.43429,46.51312 C116.43429,38.631045 110.044685,32.241955 102.16261,32.241955 C98.781635,32.241955 95.67773,33.41976 93.23251,35.385 C90.00037,28.879005 83.291465,24.405715 75.534535,24.405715 C74.752765,24.405715 73.98284,24.456185 73.225275,24.54425 C71.035495,19.789255 66.23209,16.487075 60.65361,16.487075 C58.640475,16.487075 56.729825,16.92019 55.004575,17.693205 C51.23117,10.16854 43.45158,5 34.460195,5 C21.77214,5 11.48656,15.28558 11.48656,27.973635 C11.48656,29.458895 11.63282,30.909135 11.902165,32.3156 C5.126825,33.58971 0,39.53384 0,46.67895 L116.43017,46.67895 C116.430685,46.623845 116.43429,46.56874 116.43429,46.51312 Z" transform="translate(0 -5)"/>
</svg>
