<svg xmlns="http://www.w3.org/2000/svg" viewBox="0 0 116 45">
  <path fill="#FFFFFE" fill-rule="evenodd" d="M115.68445,39.935675 C115.68445,33.18248 110.21,27.708545 103.456805,27.708545 C101.23973,27.708545 99.162735,28.30131 97.369505,29.332855 C96.095395,21.130965 89.00333,14.8526 80.443515,14.8526 C78.786245,14.8526 77.185625,15.093105 75.669465,15.531885 C72.7489,6.51887 64.28951,0 54.303145,0 C43.704445,0 34.82636,7.343385 32.46457,17.21851 C31.984075,17.105725 31.48607,17.039805 30.971585,17.039805 C27.37225,17.039805 24.45426,19.95728 24.45426,23.556615 C24.45426,24.122085 24.534085,24.667985 24.66953,25.19071 C19.808445,25.75103 15.66321,28.657175 13.394635,32.74988 C13.00993,32.71383 12.621105,32.69323 12.22713,32.69323 C5.473935,32.69323 0,38.16768 0,44.92036 L114.62149,44.92036 C115.302835,43.397505 115.68445,41.71191 115.68445,39.935675 Z"/>
</svg>
