<svg xmlns="http://www.w3.org/2000/svg" viewBox="0 0 143 307">
  <g>
    <g class="rocket__flames">
      <path fill="#EFAE50" d="M54.28,223.14 C43.87,240 44,263.89 54.58,280.58 L71.13,306.7 L88.53,278.51 C98.62,262.17 98.53,239.03 88.25,222.86 C79.46,209 62.93,209.13 54.28,223.14 Z"/>
      <path fill="#EED985" d="M60,227.49 C53.13,238.62 53.21,254.39 60.19,265.4 L71.11,282.64 L82.64,264 C89.3,253.22 89.22,237.94 82.45,227.27 C76.66,218.15 65.75,218.24 60,227.49 Z"/>
    </g>
    <g class="rocket__body">
      <path fill="#F09AA2" d="M71.29,0 C57.73,12.47 46.21,29.4 37.62,49.4 L71.29,49.4 L71.29,0 Z"/>
      <path fill="#ED838E" d="M71.29,0 L71.29,49.4 L105,49.4 C96.36,29.4 84.84,12.47 71.29,0 Z"/>
      <rect fill="#C36D75" width="51.2" height="17.57" x="45.69" y="211.8"/>
      <path fill="#F09AA2" d="M71.29,208.82 C23.77,203.38 4.55,252.35 4.55,252.35 C3.11524259,247.638934 1.95989886,242.847262 1.09,238 C-7.07,194 32.17,167.2 71.32,167.2 L71.29,208.82 Z"/>
      <path fill="#ED838E" d="M71.32,208.82 C118.84,203.38 138.06,252.35 138.06,252.35 C139.494757,247.638934 140.650101,242.847262 141.52,238 C149.68,194 110.44,167.2 71.29,167.2 L71.32,208.82 Z"/>
      <path fill="#FFFFFF" d="M71.29,49.4 L37.62,49.4 C27,74 20.87,103.36 20.87,134.84 C20.87,167.84 27.61,198.38 39.13,223.7 C49.2226045,219.093901 60.1860029,216.706846 71.28,216.7"/>
      <path fill="#EDEDED" d="M71.29,216.74 C82.3839971,216.746846 93.3473955,219.133901 103.44,223.74 C114.96,198.41 121.7,167.83 121.7,134.88 C121.7,103.4 115.55,74.09 104.96,49.45 L71.29,49.45"/>
      <path fill="#ED838E" d="M71.29,273.154198 C77.51,264.16171 81.78,245.850671 81.78,224.699447 C81.78,203.548223 77.51,185.228603 71.29,176.244696"/>
      <path fill="#F09AA2" d="M71.29,176.244696 C65.06,185.237184 60.8,203.548223 60.8,224.699447 C60.8,245.850671 65.07,264.170291 71.29,273.154198"/>
      <!-- <path fill="#ED838E" d="M71.29,252.36 C77.51,241.88 81.78,220.54 81.78,195.89 C81.78,171.24 77.51,149.89 71.29,139.42"/>
      <path fill="#F09AA2" d="M71.29,139.42 C65.06,149.9 60.8,171.24 60.8,195.89 C60.8,220.54 65.07,241.89 71.29,252.36"/> -->
      <path fill="#ED838E" d="M71.29,122.58 C83.8047724,122.58 93.95,112.434772 93.95,99.92 C93.95,87.4052276 83.8047724,77.26 71.29,77.26"/>
      <path fill="#F09AA2" d="M71.29,77.27 C58.7752276,77.27 48.63,87.4152276 48.63,99.93 C48.63,112.444772 58.7752276,122.59 71.29,122.59"/>
      <path fill="#A1DBE7" d="M71.29,114.4 C79.2981289,114.4 85.79,107.908129 85.79,99.9 C85.79,91.8918711 79.2981289,85.4 71.29,85.4"/>
      <path fill="#B0E1EB" d="M71.29,85.45 C63.2818711,85.45 56.79,91.9418711 56.79,99.95 C56.79,107.958129 63.2818711,114.45 71.29,114.45"/>
    </g>
  </g>
</svg>
