<svg xmlns="http://www.w3.org/2000/svg" xmlns:xlink="http://www.w3.org/1999/xlink" width="1000" height="412" viewBox="0 0 1000 412">
  <defs>
    <circle id="space-a" cx="62.055" cy="62.055" r="62.055"/>
    <circle id="space-c" cx="87.367" cy="87.367" r="87.367"/>
    <circle id="space-e" cx="113.087" cy="113.087" r="113.087"/>
    <circle id="space-g" cx="133.5" cy="133.5" r="133.5"/>
  </defs>
  <g fill="none" fill-rule="evenodd">
    <g fill="#FFFC97" transform="translate(68 38)">
      <circle cx="14.5" cy="57.5" r="14.5"/>
      <circle cx="65" cy="176" r="10"/>
      <circle cx="197.5" cy="28.5" r="14.5"/>
      <circle cx="285" cy="186" r="10"/>
      <circle cx="470" cy="10" r="10"/>
      <circle cx="849.5" cy="201.5" r="14.5"/>
      <circle cx="731.5" cy="43.5" r="14.5"/>
      <circle cx="727" cy="308" r="10"/>
      <circle cx="623" cy="125" r="10"/>
      <circle cx="14.5" cy="334.5" r="14.5"/>
      <circle cx="183.5" cy="312.5" r="14.5"/>
      <circle cx="445.5" cy="134.5" r="14.5"/>
      <circle cx="579.5" cy="250.5" r="14.5"/>
      <circle cx="416.5" cy="334.5" r="14.5"/>
    </g>
    <g transform="translate(26 172)">
      <g fill="#000" opacity=".1">
        <circle cx="76" cy="76" r="76"/>
        <circle cx="76" cy="76" r="68.563"/>
      </g>
      <g transform="translate(13.945 13.945)">
        <mask id="space-b" fill="#fff">
          <use xlink:href="#space-a"/>
        </mask>
        <use fill="#D8D8D8" xlink:href="#space-a"/>
        <g fill="#000" mask="url(#space-b)" opacity=".25">
          <g transform="translate(18.128 17.199)">
            <circle cx="62.985" cy="6.275" r="6.275"/>
            <circle cx="23.939" cy="83.437" r="6.275"/>
            <circle cx="84.832" cy="62.52" r="6.275"/>
            <circle cx="56.942" cy="81.113" r="2.557"/>
            <circle cx="36.489" cy="58.801" r="2.557"/>
            <circle cx="61.823" cy="41.37" r="3.719"/>
            <circle cx="2.557" cy="53.688" r="2.557"/>
            <circle cx="88.55" cy="32.306" r="2.557"/>
            <circle cx="31.376" cy="12.783" r="4.881"/>
            <circle cx="17.664" cy="33.468" r="3.719"/>
          </g>
        </g>
        <path fill="#FFF" d="M62.0550459,124.110092 C27.7829904,124.110092 0,96.3271014 0,62.0550459 C0,27.7829904 27.7829904,0 62.0550459,0 C96.3271014,0 124.110092,27.7829904 124.110092,62.0550459 C124.110092,96.3271014 96.3271014,124.110092 62.0550459,124.110092 Z M62.0550459,119.926606 C94.0166257,119.926606 119.926606,94.0166257 119.926606,62.0550459 C119.926606,30.093466 94.0166257,4.18348624 62.0550459,4.18348624 C30.093466,4.18348624 4.18348624,30.093466 4.18348624,62.0550459 C4.18348624,94.0166257 30.093466,119.926606 62.0550459,119.926606 Z" mask="url(#space-b)" opacity=".75"/>
      </g>
    </g>
    <g transform="translate(408 181)">
      <g fill="#000" opacity=".1">
        <circle cx="107" cy="107" r="107"/>
        <circle cx="107" cy="107" r="96.529"/>
      </g>
      <g transform="translate(19.633 19.633)">
        <mask id="space-d" fill="#fff">
          <use xlink:href="#space-c"/>
        </mask>
        <use fill="#FE8B5D" xlink:href="#space-c"/>
        <g fill="#FFF" mask="url(#space-d)" opacity=".3">
          <g transform="translate(-4.581 27.486)">
            <path d="M139.738029,13.7431193 L165.441473,13.7431193 C168.087697,13.7431193 170.232886,15.8883081 170.232886,18.5345326 L170.232886,18.5345326 C170.232886,21.2382811 168.151387,23.4862738 165.455623,23.6939155 L145.097751,25.2619846 C141.158974,25.5653697 137.454253,23.3615371 135.8411,19.7554666 L135.8411,19.7554666 C134.87832,17.6032518 135.842547,15.0780495 137.994762,14.1152694 C138.54319,13.8699334 139.137227,13.7431193 139.738029,13.7431193 Z"/>
            <path d="M19.594851,1.80829077 L79.4816733,3.2266364 C80.9350141,3.26105699 82.0952483,4.44909525 82.0952483,5.90284366 L82.0952483,5.90284366 C82.0952483,7.38659703 80.9701999,8.62859508 79.4936728,8.77485484 L19.5633108,14.711353 C16.1423479,15.0502219 13.0944019,12.5516911 12.7555329,9.13072815 C12.7353351,8.92682626 12.7252177,8.72205142 12.7252177,8.5171516 L12.7252177,8.5171516 C12.7252177,4.81091106 15.7297193,1.80640947 19.4359599,1.80640947 C19.4889291,1.80640947 19.5418965,1.80703661 19.594851,1.80829077 Z" transform="rotate(3 47.41 8.274)"/>
            <path d="M127.873814,79.7016413 L173.906307,76.4348407 C177.681356,76.1669357 180.958818,79.0100377 181.226723,82.7850866 C181.23818,82.9465278 181.243913,83.1083242 181.243913,83.2701714 L181.243913,83.2701714 C181.243913,87.0727136 178.161344,90.1552831 174.358802,90.1552831 C174.207052,90.1552831 174.055343,90.1502661 173.903924,90.1402405 L127.874934,87.092592 C125.933056,86.9640173 124.423694,85.351414 124.423694,83.4052835 L124.423694,83.4052835 C124.423694,81.4566667 125.930085,79.8395824 127.873814,79.7016413 Z" transform="rotate(9 152.834 83.285)"/>
            <path d="M140.06476,97.9446733 L170.7204,95.7691261 C173.234419,95.590713 175.417066,97.4840954 175.595479,99.9981139 C175.603109,100.105627 175.606927,100.213376 175.606927,100.321159 L175.606927,100.321159 C175.606927,102.853487 173.55407,104.906344 171.021742,104.906344 C170.920683,104.906344 170.819652,104.903003 170.718813,104.896327 L140.065506,102.866725 C138.772299,102.7811 137.76713,101.707176 137.76713,100.411138 L137.76713,100.411138 C137.76713,99.113444 138.770321,98.0365361 140.06476,97.9446733 Z" transform="rotate(22 156.687 100.332)"/>
            <path d="M0,45.8372697 C31.4431504,40.5838809 62.4197049,37.9571865 92.9296636,37.9571865 C123.439622,37.9571865 154.416177,40.5838809 185.859327,45.8372697 L185.859327,52.252639 C155.422454,49.8964722 124.4459,48.7183888 92.9296636,48.7183888 C61.4134277,48.7183888 30.4368731,49.8964722 0,52.252639 L0,45.8372697 Z"/>
            <path d="M52.4078823,135.525527 C54.9035515,121.649921 60.9955925,113.129387 70.6840055,109.963924 C75.4875156,108.394489 85.8109044,110.172243 90.6757665,109.046176 C101.394094,106.565211 116.274457,101.361882 122.114687,103.579774 C130.838388,106.892696 125.528806,128.323167 114.185243,131.233033 C108.699601,132.640217 91.4580849,130.994189 84.9034102,134.241217 C77.9039048,137.708604 81.5553553,146.010891 74.6516476,145.28341 C65.7391989,144.344257 58.3246105,141.091629 52.4078823,135.525527 Z" transform="rotate(-16 89.435 124.185)"/>
          </g>
        </g>
        <g fill="#E17D55" mask="url(#space-d)">
          <g transform="translate(-2.618 70.679)">
            <ellipse cx="103.401" cy="4.581" rx="11.125" ry="4.581"/>
            <ellipse cx="71.101" cy="21.3" rx="4.017" ry="15.407" transform="rotate(-89 71.101 21.3)"/>
            <path d="M7.81503445,46.3098198 L67.7018567,47.7281655 C69.1551976,47.762586 70.3154318,48.9506243 70.3154318,50.4043727 L70.3154318,50.4043727 C70.3154318,51.8881261 69.1903833,53.1301241 67.7138563,53.2763839 L7.78349433,59.212882 C4.36253139,59.551751 1.3145854,57.0532201 0.975716431,53.6322572 C0.955518602,53.4283553 0.94540121,53.2235805 0.94540121,53.0186807 L0.94540121,53.0186807 C0.94540121,49.3124401 3.9499028,46.3079385 7.65614335,46.3079385 C7.70911262,46.3079385 7.76208003,46.3085657 7.81503445,46.3098198 Z" transform="rotate(-7 35.63 52.776)"/>
            <ellipse cx="100.78" cy="72.022" rx="12.921" ry="4.698" transform="rotate(-22 100.78 72.022)"/>
          </g>
        </g>
        <path fill="#FFF" d="M87.3669725,174.733945 C39.1155259,174.733945 0,135.618419 0,87.3669725 C0,39.1155259 39.1155259,0 87.3669725,0 C135.618419,0 174.733945,39.1155259 174.733945,87.3669725 C174.733945,135.618419 135.618419,174.733945 87.3669725,174.733945 Z M87.3669725,168.844037 C132.365513,168.844037 168.844037,132.365513 168.844037,87.3669725 C168.844037,42.3684324 132.365513,5.88990826 87.3669725,5.88990826 C42.3684324,5.88990826 5.88990826,42.3684324 5.88990826,87.3669725 C5.88990826,132.365513 42.3684324,168.844037 87.3669725,168.844037 Z" mask="url(#space-d)" opacity=".75"/>
      </g>
    </g>
    <g transform="translate(162 11)">
      <g fill="#000" opacity=".1">
        <circle cx="138.5" cy="138.5" r="138.5"/>
        <circle cx="138.5" cy="138.5" r="124.946"/>
      </g>
      <g transform="translate(25.413 25.413)">
        <mask id="space-f" fill="#fff">
          <use xlink:href="#space-e"/>
        </mask>
        <use fill="#7AD0E8" xlink:href="#space-e"/>
        <path fill="#8ED1BF" d="M164.246663,-32.1896024 C151.362257,-33.4306246 139.931391,-18.9220036 129.954062,11.3362605 C114.98807,56.7236567 115.685543,102.314461 164.246663,102.314461 C170.860131,102.314461 205.232238,131.62494 178.364063,145.089917 C153.576423,157.512234 167.118337,224.877974 178.364063,220.425212 C187.732517,216.715759 218.509943,174.561598 270.696339,93.9627317 L164.246663,-32.1896024 Z" mask="url(#space-f)"/>
        <path fill="#8ED1BF" d="M-9.85805375,121.84569 C11.3449265,126.236256 37.8878648,137.985642 69.7707614,157.093849 C101.653658,176.202057 105.999126,202.191747 82.8071649,235.062919 L16.8186513,210.926606 L-9.85805375,121.84569 Z" mask="url(#space-f)"/>
        <path fill="#FFF" d="M177.088356,28.5188583 C173.441236,28.5188583 170.48466,31.4897069 170.48466,35.1544343 C170.48466,38.8191617 173.441236,41.7900102 177.088356,41.7900102 L191.616487,41.7900102 C195.263608,41.7900102 198.220183,44.7608587 198.220183,48.4255861 C198.220183,52.0903135 195.263608,55.0611621 191.616487,55.0611621 L106.560883,55.0611621 C102.913762,55.0611621 99.9571865,52.0903135 99.9571865,48.4255861 C99.9571865,44.7608587 102.913762,41.7900102 106.560883,41.7900102 L140.635954,41.7900102 C144.283075,41.7900102 147.23965,38.8191617 147.23965,35.1544343 C147.23965,31.4897069 144.283075,28.5188583 140.635954,28.5188583 L126.867603,28.5188583 C124.259716,28.5188583 122.145605,25.5480098 122.145605,21.8832824 C122.145605,18.218555 124.259716,15.2477064 126.867603,15.2477064 L187.686933,15.2477064 C190.294821,15.2477064 192.408931,18.218555 192.408931,21.8832824 C192.408931,25.5480098 190.294821,28.5188583 187.686933,28.5188583 L177.088356,28.5188583 Z" mask="url(#space-f)" opacity=".75"/>
        <path fill="#FFF" d="M210.368486,181.876237 L210.368486,189.350603 L212.153335,189.350603 C216.917767,189.350603 220.780103,193.232412 220.780103,198.020867 C220.780103,202.809322 216.917767,206.691131 212.153335,206.691131 L163.664948,206.691131 C158.900516,206.691131 155.03818,202.809322 155.03818,198.020867 C155.03818,193.232412 158.900516,189.350603 163.664948,189.350603 L169.019494,189.350603 C171.073129,189.350603 172.737929,187.677409 172.737929,185.61342 C172.737929,183.549431 171.073129,181.876237 169.019494,181.876237 L164.557373,181.876237 C156.014252,181.876237 149.088685,174.915751 149.088685,166.329556 C149.088685,157.743361 156.014252,150.782875 164.557373,150.782875 L222.564951,150.782875 C231.108072,150.782875 238.033639,157.743361 238.033639,166.329556 C238.033639,174.915751 231.108072,181.876237 222.564951,181.876237 L210.368486,181.876237 Z" mask="url(#space-f)" opacity=".75"/>
        <path fill="#FFF" d="M27.665153,201.359417 L15.4686877,201.359417 C6.92556737,201.359417 0,194.398931 0,185.812736 C0,177.226541 6.92556737,170.266055 15.4686877,170.266055 L73.4762665,170.266055 C82.0193868,170.266055 88.9449541,177.226541 88.9449541,185.812736 C88.9449541,194.398931 82.0193868,201.359417 73.4762665,201.359417 L69.014145,201.359417 C66.9605103,201.359417 65.2957105,203.032611 65.2957105,205.0966 C65.2957105,207.160589 66.9605103,208.833783 69.014145,208.833783 L74.3686907,208.833783 C79.1331232,208.833783 82.9954589,212.715593 82.9954589,217.504047 C82.9954589,222.292502 79.1331232,226.174312 74.3686907,226.174312 L25.8803044,228.382515 C21.1158719,228.382515 17.2535363,222.292502 17.2535363,217.504047 C17.2535363,212.715593 21.1158719,208.833783 25.8803044,208.833783 L27.665153,208.833783 L27.665153,201.359417 Z" mask="url(#space-f)" opacity=".75"/>
        <rect width="64.379" height="15.248" x="32.19" y="98.263" fill="#FFF" mask="url(#space-f)" opacity=".75" rx="7.624"/>
        <rect width="32.19" height="15.248" x="103.346" y="122.829" fill="#FFF" mask="url(#space-f)" opacity=".75" rx="7.624"/>
        <path fill="#FFF" d="M113.087156,226.174312 C50.6308443,226.174312 0,175.543468 0,113.087156 C0,50.6308443 50.6308443,0 113.087156,0 C175.543468,0 226.174312,50.6308443 226.174312,113.087156 C226.174312,175.543468 175.543468,226.174312 113.087156,226.174312 Z M113.087156,218.550459 C171.33293,218.550459 218.550459,171.33293 218.550459,113.087156 C218.550459,54.8413822 171.33293,7.62385321 113.087156,7.62385321 C54.8413822,7.62385321 7.62385321,54.8413822 7.62385321,113.087156 C7.62385321,171.33293 54.8413822,218.550459 113.087156,218.550459 Z" mask="url(#space-f)" opacity=".75"/>
      </g>
    </g>
    <g transform="rotate(-12 492.621 -2684.962)">
      <g fill="#000" opacity=".1" transform="translate(35)">
        <circle cx="163.5" cy="163.5" r="163.5"/>
        <circle cx="163.5" cy="163.5" r="147.5"/>
      </g>
      <g transform="translate(65 27)">
        <mask id="space-h" fill="#fff">
          <use xlink:href="#space-g"/>
        </mask>
        <use fill="#F1DA89" xlink:href="#space-g"/>
        <rect width="300" height="34" x="-20.366" y="154.541" fill="#000" mask="url(#space-h)" opacity=".15"/>
        <rect width="300" height="9" x="-21.406" y="199.432" fill="#000" mask="url(#space-h)" opacity=".25"/>
        <rect width="300" height="25" x="-16" y="222" fill="#000" mask="url(#space-h)" opacity=".15"/>
        <rect width="300" height="25" x="-16" y="79" fill="#000" mask="url(#space-h)" opacity=".15"/>
        <rect width="300" height="17" x="-16" y="30" fill="#000" mask="url(#space-h)" opacity=".25"/>
        <rect width="300" height="20" x="-18.247" y="119.869" fill="#FFF" mask="url(#space-h)" opacity=".25"/>
        <path fill="#FFF" d="M133.5,267 C59.7699859,267 0,207.230014 0,133.5 C0,59.7699859 59.7699859,0 133.5,0 C207.230014,0 267,59.7699859 267,133.5 C267,207.230014 207.230014,267 133.5,267 Z M133.5,258 C202.259451,258 258,202.259451 258,133.5 C258,64.7405486 202.259451,9 133.5,9 C64.7405486,9 9,64.7405486 9,133.5 C9,202.259451 64.7405486,258 133.5,258 Z" mask="url(#space-h)" opacity=".75"/>
      </g>
      <path fill="#FFEFB5" d="M65.160822,153.889269 C55.3817801,162.54285 50.3678727,171.634951 51.4553811,180.491997 C55.0562832,209.81899 124.18772,225.463364 205.864768,215.434684 C287.541815,205.406003 350.835036,173.501926 347.234134,144.174933 C346.101672,134.951765 338.487809,127.081898 326.040671,120.938301 C322.650796,109.997709 317.891926,99.659069 311.96428,90.1226021 C361.45426,97.2898079 394.933775,114.176367 397.793053,137.463323 C402.639127,176.931426 317.692036,219.839199 208.058416,233.300515 C98.4247952,246.76183 5.62066647,225.679164 0.774592725,186.21106 C-2.05632849,163.155057 25.7548701,138.925259 71.2292689,120.077471 C67.819529,130.822716 65.7329312,142.157097 65.160822,153.889269 Z"/>
    </g>
  </g>
</svg>
